{"title":"Van kooten &amp; De Bie ~Ons Kijkt Ons 9~ Terugkeek Op De Week -","uid":7124161,"size":4078768020,"categoryP":"video","categoryS":"tv_shows","magnet":"?xt=urn:btih:6c78f8f60251ce59f7916e32c1fc4f4963a49f30&amp;dn=Van+kooten+%26amp%3B+De+Bie+%7EOns+Kijkt+Ons+9%7E+Terugkeek+Op+De+Week+-&amp;tr=udp%3A%2F%2Ftracker.openbittorrent.com%3A80&amp;tr=udp%3A%2F%2Fopen.demonii.com%3A1337&amp;tr=udp%3A%2F%2Ftracker.coppersurfer.tk%3A6969&amp;tr=udp%3A%2F%2Fexodus.desync.com%3A6969","seeders":0,"leechers":1,"uploader":"Filmofiel","files":1,"time":1332465168,"description":"VIDEO INFO:\n\nComplete name                    : N:Nederlands - Vlaams CabaretVan kooten &amp; De Bie ~Ons Kijkt Ons 9~ Terugkeek Op De Week - DVDrip [AC-3 2.0] (Humor, Satire 2002 XviD).avi\nFormat                           : AVI\nFormat/Info                      : Audio Video Interleave\nFormat profile                   : OpenDML\nFile size                        : 3.80 GiB\nDuration                         : 4h 5mn\nOverall bit rate                 : 2 213 Kbps\nMovie name                       : KEEKOPWEEK_SCN.Title1.DVDRip\nWriting application              : Lavf52.78.4\nOriginal source form/Name        : KEEKOPWEEK_SCN\n\nVideo\nID                               : 0\nFormat                           : MPEG-4 Visual\nFormat profile                   : Advanced Simple@L5\nFormat settings, BVOP            : 2\nFormat settings, QPel            : No\nFormat settings, GMC             : No warppoints\nFormat settings, Matrix          : Default (H.263)\nMuxing mode                      : Packed bitstream\nCodec ID                         : XVID\nCodec ID/Hint                    : XviD\nDuration                         : 4h 5mn\nBit rate                         : 1 980 Kbps\nWidth                            : 720 pixels\nHeight                           : 412 pixels\nDisplay aspect ratio             : 16:9\nFrame rate                       : 25.000 fps\nColor space                      : YUV\nChroma subsampling               : 4:2:0\nBit depth                        : 8 bits\nScan type                        : Progressive\nCompression mode                 : Lossy\nBits/(Pixel*Frame)               : 0.267\nStream size                      : 3.40 GiB (89%)\nWriting library                  : XviD 1.2.1 (UTC 2008-12-04)\n\nAudio\nID                               : 1\nFormat                           : AC-3\nFormat/Info                      : Audio Coding 3\nMode extension                   : CM (complete main)\nCodec ID                         : 2000\nDuration                         : 4h 5mn\nBit rate mode                    : Constant\nBit rate                         : 224 Kbps\nChannel(s)                       : 2 channels\nChannel positions                : Front: L R\nSampling rate                    : 48.0 KHz\nBit depth                        : 16 bits\nCompression mode                 : Lossy\nStream size                      : 394 MiB (10%)\nAlignment                        : Aligned on interleaves\nInterleave, duration             : 32 ms (0.80 video frame)\nInterleave, preload duration     : 32 ms","torrent":{"xt":"urn:btih:6c78f8f60251ce59f7916e32c1fc4f4963a49f30","amp;dn":"Van+kooten+%26amp%3B+De+Bie+%7EOns+Kijkt+Ons+9%7E+Terugkeek+Op+De+Week+-","amp;tr":["udp%3A%2F%2Ftracker.openbittorrent.com%3A80","udp%3A%2F%2Fopen.demonii.com%3A1337","udp%3A%2F%2Ftracker.coppersurfer.tk%3A6969","udp%3A%2F%2Fexodus.desync.com%3A6969"],"infoHash":"6c78f8f60251ce59f7916e32c1fc4f4963a49f30","infoHashBuffer":{"type":"Buffer","data":[108,120,248,246,2,81,206,89,247,145,110,50,193,252,79,73,99,164,159,48]},"announce":[],"urlList":[]}}